PathFileType	4	(X/Y/Z)	H:\MAC\Cortex8\Teaching\Biomec1_N_2\Trimmed_walk2.trc
DataRate	CameraRate	NumFrames	NumMarkers	Units	OrigDataRate	OrigDataStartFrame	OrigNumFrames
150.00	150.00	       7	28	mm	150.00	70	       184
Frame#	Time	R.ASIS			L.ASIS			R.PSIS			L.PSIS			L.Iliac.Crest			R.Iliac.Crest			R.GTR			R.Knee			R.HF			R.TT			R.Ankle			R.Heel			R.MT1			R.MT5			L.GTR			L.Knee			L.HF			L.TT			L.Ankle			L.Heel			L.MT1			L.MT5			R.Knee.Medial			R.Ankle.Medial			R.MT2			L.Knee.Medial			L.Ankle.Medial			L.MT2			V_Mid_ASIS			V_Mid_PSIS			V_Pelvis_Origin			V_R.Hip_JC			V_R.Knee_JC_Static			V_R.TT			V_R.Ankle_JC_Static			V_L.Hip_JC			V_Mid_Hip			V_R.MT2_Static			V_R.Knee.Medial			V_R.Ankle.Medial			V_R.TT			V_L.Knee_JC_Static			V_L.TT			V_L.Ankle_JC_Static			V_L.MT2_Static			V_R.Knee_JC			V_R.Ankle_JC			V_L.Knee_JC			V_L.Ankle_JC			V_R.TT_KJC_Static			V_L.TT_KJC_Static			V_R.TT_KJC			V_L.TT_KJC			V_R.MT2			V_L.MT2			
		X1	Y1	Z1	X2	Y2	Z2	X3	Y3	Z3	X4	Y4	Z4	X5	Y5	Z5	X6	Y6	Z6	X7	Y7	Z7	X8	Y8	Z8	X9	Y9	Z9	X10	Y10	Z10	X11	Y11	Z11	X12	Y12	Z12	X13	Y13	Z13	X14	Y14	Z14	X15	Y15	Z15	X16	Y16	Z16	X17	Y17	Z17	X18	Y18	Z18	X19	Y19	Z19	X20	Y20	Z20	X21	Y21	Z21	X22	Y22	Z22	X23	Y23	Z23	X24	Y24	Z24	X25	Y25	Z25	X26	Y26	Z26	X27	Y27	Z27	X28	Y28	Z28	

70.0	0.46	-355.6142	966.41388	-1007.93622	-606.96558	962.42096	-985.07654	-400.9791	972.75372	-798.17841	-477.24695	976.53595	-784.95325	-636.28851	1027.42566	-891.42133	-303.53595	1011.40967	-935.34668	-272.61655	882.88892	-956.71997	-308.05389	480.91312	-1063.17615	-304.67865	431.43781	-1105.53088	-346.16754	453.94272	-1172.98865	-326.18405	103.5849	-1276.51917	-388.41	50.75032	-1250.48547	-340.25482	176.5273	-1430.96094	-264.00531	138.93855	-1398.34326	-675.84229	873.15863	-875.87659	-621.94391	497.37845	-758.12701	-615.20728	432.13013	-751.50287	-562.44104	408.82004	-807.16077	-546.01294	94.19186	-620.01208	-488.52878	68.98053	-551.54761	-486.01669	50.83545	-774.50244	-574.07843	46.24958	-750.26709	-441.86343	477.68402	-1105.5741	-400.49097	146.27817	-1312.82117	-305.49664	173.70387	-1413.92261	-479.86404	483.33002	-775.36823	-459.53378	108.98355	-660.80048	-522.64008	55.03554	-772.685
71.0	0.467	-355.63754	965.00012	-1016.76221	-606.7774	961.06586	-992.83472	-399.55975	971.51685	-806.74261	-475.92508	975.27869	-793.15588	-635.72333	1026.14038	-899.00256	-302.98166	1009.92389	-944.60284	-272.06808	881.67682	-965.81085	-308.47751	479.34506	-1071.64685	-305.07962	430.15866	-1114.22278	-346.7468	453.23404	-1181.70764	-327.31772	102.45296	-1285.39771	-389.35638	49.54853	-1259.12756	-342.19397	175.47052	-1439.85376	-265.76852	137.84407	-1407.45618	-675.4115	872.0921	-882.99933	-621.66345	497.14319	-763.32086	-614.98932	432.01981	-756.02271	-562.68658	408.38293	-811.17395	-546.22974	95.16121	-620.61682	-488.84045	70.78477	-551.95563	-486.1087	50.77598	-774.76459	-574.18323	46.22485	-750.36353	-442.31866	476.67255	-1113.68347	-401.71365	145.11902	-1321.27832	-307.30771	172.6044	-1422.87183	-479.95483	482.70905	-780.91132	-459.90942	109.77719	-661.81445	-522.70459	54.99612	-772.7218
72.0	0.473	-355.5181	963.65826	-1025.39197	-606.58954	959.70367	-1000.51459	-398.24017	970.2818	-815.33179	-474.62109	973.9563	-801.55713	-635.05048	1024.83948	-906.68109	-302.10745	1008.69135	-954.20959	-271.33719	880.73853	-974.95618	-308.74457	478.25156	-1080.87305	-305.39227	429.20587	-1123.34534	-347.29028	452.41452	-1190.82288	-328.38962	100.75124	-1293.07129	-390.34979	47.93334	-1266.22925	-344.45313	173.09651	-1447.70349	-267.78156	135.24506	-1416.47681	-674.92566	871.02838	-890.28381	-621.03668	497.14993	-768.20209	-614.76062	431.90649	-760.63446	-562.66907	407.59348	-815.64288	-547.01154	96.27187	-621.0155	-489.09897	72.66113	-552.58246	-486.20139	50.72894	-775.04883	-574.29089	46.20269	-750.45563	-442.61649	475.87076	-1122.31897	-403.11411	143.15939	-1328.78076	-309.43924	170.52266	-1430.92932	-479.81723	482.17459	-786.29755	-460.22195	110.73154	-662.75739	-522.75574	54.94309	-772.76215
73.0	0.48	-355.35849	962.52051	-1034.13318	-606.34961	958.383	-1008.4447	-397.01959	968.97321	-823.93329	-473.33044	972.58771	-810.03046	-634.35925	1023.50891	-914.4621	-301.89041	1007.34247	-962.74792	-270.45358	880.46844	-985.3678	-308.76736	477.61209	-1090.81555	-305.72015	428.50916	-1132.83606	-348.00528	451.4527	-1200.26245	-329.67343	98.65939	-1299.57678	-391.24847	45.85718	-1271.87231	-346.9682	170.17355	-1455.20508	-269.53778	132.63586	-1423.21863	-674.46497	869.96008	-897.61066	-620.56287	496.94641	-773.64447	-614.4281	431.78625	-765.49646	-562.50372	406.75668	-820.17242	-547.31207	97.56474	-621.77661	-489.50674	74.60487	-553.27332	-486.32678	50.67282	-775.35211	-574.39972	46.29018	-750.71216	-442.89624	475.29892	-1131.41528	-404.67413	140.48329	-1335.20557	-311.74161	167.07185	-1438.14685	-479.53036	481.48022	-792.12225	-460.52744	111.81984	-663.53522	-522.82196	54.90541	-772.80182
74.0	0.487	-355.07281	961.5719	-1043.34363	-606.00842	957.086	-1016.45972	-395.91516	967.73761	-832.67963	-472.16049	971.15143	-818.6394	-633.61316	1022.19873	-922.38574	-301.25613	1006.08411	-971.73322	-269.40091	880.12244	-995.20441	-308.59955	477.45654	-1101.42529	-305.9129	427.84705	-1142.91431	-348.78455	450.1702	-1209.93323	-330.96793	96.07127	-1305.10278	-392.23694	43.42431	-1276.36731	-349.59705	165.6713	-1461.35864	-272.36591	128.91373	-1429.52185	-673.96674	868.86987	-905.09442	-620.08374	496.77405	-779.23517	-614.15417	431.72021	-770.41174	-562.34302	405.91833	-824.96606	-547.64734	99.0032	-622.61682	-490.02921	76.95648	-553.84778	-486.60388	50.65749	-775.68555	-574.54346	46.43416	-750.95251	-443.15067	474.94501	-1141.04944	-406.37903	137.22009	-1340.75842	-314.207	162.64665	-1444.64551	-479.21335	480.89624	-797.8382	-461.0181	112.93038	-664.8042	-522.87744	54.88267	-772.82672
75.0	0.493	-354.61017	960.70422	-1052.42249	-605.46936	955.74451	-1024.74487	-394.82684	966.42401	-841.50256	-471.0459	969.71606	-827.29352	-632.8476	1020.86505	-930.51062	-300.6485	1004.92169	-980.54877	-268.31448	879.96661	-1004.99579	-308.24927	477.62811	-1112.68958	-306.04446	427.26865	-1153.24487	-349.67725	448.63297	-1219.61719	-332.34836	93.09673	-1309.83765	-393.27579	40.66183	-1279.77502	-352.44092	160.34549	-1466.83899	-274.87634	123.88158	-1436.04187	-673.43927	867.81012	-912.75922	-619.48755	496.57742	-785.00104	-613.80182	431.61377	-775.61603	-562.1203	405.05646	-829.79706	-547.79712	100.60603	-623.68665	-490.34586	79.60244	-554.36188	-487.02365	50.51988	-776.13708	-574.71515	46.16997	-750.77844	-443.32745	474.66888	-1151.00378	-408.16812	133.44759	-1345.38538	-317.01746	158.10066	-1450.35498	-478.79642	480.25153	-803.8736	-461.37396	114.04137	-665.95667	-523.05261	54.73716	-772.64203
76.0	0.5	-354.09717	960.04596	-1061.79871	-604.953	954.427	-1033.06323	-393.84134	965.08582	-850.552	-469.96603	968.25989	-836.1673	-632.05811	1019.54187	-938.78357	-299.42126	1004.14215	-990.11053	-267.48248	880.06915	-1015.57831	-307.87918	477.93372	-1124.49805	-306.23627	426.61124	-1163.94299	-350.73334	446.66513	-1229.55444	-333.68835	89.82419	-1313.74683	-394.19421	37.60668	-1282.24243	-355.56573	154.48354	-1471.53174	-277.66504	119.00811	-1441.00513	-672.89819	866.77032	-920.50775	-618.88123	496.41229	-791.01007	-613.48004	431.55438	-780.97638	-561.90833	404.25293	-834.98541	-547.97882	102.22939	-624.7915	-490.75702	82.31583	-555.18036	-487.5376	50.36521	-776.61597	-574.90283	46.16838	-750.89697	-444.02454	474.19153	-1160.72791	-410.10757	129.24055	-1349.09436	-319.89355	152.83049	-1455.35242	-478.34052	479.63574	-810.21075	-461.78244	115.39638	-667.11523	-523.15607	54.72934	-772.66608
